<?xml version="1.0" encoding="UTF-8"?><svg id="a" xmlns="http://www.w3.org/2000/svg" viewBox="0 0 178.93 60.59"><defs><style>.b{fill:#7191af;}.c{fill:#0c2337;}</style></defs><g><path class="c" d="M0,0H8.83c3.07,0,5.31,.71,6.72,2.14,1.41,1.43,2.11,3.62,2.11,6.58v2.33c0,3.94-1.3,6.43-3.9,7.48v.11c1.44,.43,2.46,1.32,3.06,2.65,.6,1.34,.89,3.12,.89,5.36v6.66c0,1.08,.04,1.96,.11,2.63,.07,.67,.25,1.33,.54,1.98h-6.07c-.22-.61-.36-1.19-.43-1.73-.07-.54-.11-1.52-.11-2.93v-6.93c0-1.73-.28-2.94-.84-3.63-.56-.69-1.53-1.03-2.9-1.03h-2.06v16.25H0V0ZM8.13,16.25c1.19,0,2.09-.31,2.68-.92,.6-.61,.89-1.64,.89-3.09v-2.93c0-1.37-.24-2.36-.73-2.98-.49-.61-1.25-.92-2.3-.92h-2.71v10.83h2.17Z"/><path class="c" d="M26.44,21.78L19.23,0h6.34l4.06,13.92h.11L33.8,0h5.8l-7.21,21.78v16.14h-5.96V21.78Z"/><path class="c" d="M44.42,0h8.07l6.18,37.92h-5.96l-1.08-7.53v.11h-6.77l-1.08,7.42h-5.53L44.42,0Zm6.5,25.35l-2.65-18.74h-.11l-2.6,18.74h5.36Z"/><path class="c" d="M61.54,0h7.48l5.8,22.7h.11V0h5.31V37.92h-6.12l-7.15-27.68h-.11v27.68h-5.31V0Z"/><path class="c" d="M93.34,0h9.1c2.96,0,5.18,.79,6.66,2.38,1.48,1.59,2.22,3.92,2.22,6.99V28.55c0,3.07-.74,5.4-2.22,6.99-1.48,1.59-3.7,2.38-6.66,2.38h-9.1V0Zm8.99,32.5c.98,0,1.72-.29,2.25-.87,.52-.58,.79-1.52,.79-2.82V9.1c0-1.3-.26-2.24-.79-2.82-.52-.58-1.27-.87-2.25-.87h-3.03v27.09h3.03Z"/><path class="c" d="M117.39,36c-1.52-1.64-2.28-4-2.28-7.07V0h5.96V29.36c0,1.3,.26,2.24,.79,2.82,.52,.58,1.27,.87,2.25,.87s1.72-.29,2.25-.87c.52-.58,.79-1.52,.79-2.82V0h5.74V28.93c0,3.07-.76,5.43-2.27,7.07-1.52,1.64-3.72,2.46-6.61,2.46s-5.09-.82-6.61-2.46Z"/><path class="c" d="M137.11,0h7.48l5.8,22.7h.11V0h5.31V37.92h-6.12l-7.15-27.68h-.11v27.68h-5.31V0Z"/><path class="c" d="M160.24,0h7.48l5.8,22.7h.11V0h5.31V37.92h-6.12l-7.15-27.68h-.11v27.68h-5.31V0Z"/></g><g><path class="b" d="M16.67,50.3h.93l-3.13,7.31h-.8l-1.56-3.73-1.56,3.73h-.8l-3.13-7.31h.91l2.67,6.33,1.39-3.34-1.25-2.97h.81l.95,2.39,.94-2.39h.81l-1.23,2.97,1.39,3.34,2.65-6.33Z"/><path class="b" d="M27.65,57.75c-.53,0-1.02-.1-1.47-.3-.45-.2-.84-.48-1.16-.83-.33-.35-.58-.75-.76-1.21-.18-.46-.27-.95-.27-1.47s.09-1,.27-1.45c.18-.45,.44-.85,.76-1.19,.33-.34,.71-.61,1.16-.81,.44-.2,.93-.3,1.47-.3s1.02,.1,1.47,.3,.83,.47,1.14,.82c.32,.35,.57,.74,.74,1.19,.18,.45,.27,.93,.27,1.43,0,.07,0,.15,0,.22s-.01,.13-.02,.15h-6.24c.03,.39,.12,.76,.27,1.09s.35,.62,.59,.86c.24,.24,.51,.43,.83,.57,.31,.14,.65,.2,1,.2,.24,0,.48-.03,.72-.1s.45-.15,.65-.27c.2-.11,.37-.25,.53-.41,.15-.16,.27-.34,.36-.54l.83,.22c-.11,.27-.27,.52-.48,.74-.21,.22-.44,.41-.72,.58-.27,.16-.57,.29-.9,.38-.33,.09-.66,.13-1.01,.13Zm2.69-4.18c-.03-.39-.12-.75-.27-1.07s-.35-.6-.59-.83c-.24-.23-.52-.42-.83-.55-.32-.13-.65-.2-1.01-.2s-.69,.07-1.01,.2c-.32,.13-.6,.31-.83,.55-.24,.23-.43,.51-.58,.84-.15,.33-.23,.68-.26,1.07h5.39Z"/><path class="b" d="M41.88,57.75c-.57,0-1.1-.14-1.59-.43s-.87-.66-1.14-1.12v1.42h-.86v-10.24h.95v4.46c.33-.5,.72-.9,1.18-1.2,.46-.3,1-.46,1.61-.46,.5,0,.96,.11,1.38,.32,.41,.22,.76,.5,1.04,.86,.29,.36,.51,.77,.66,1.22s.23,.92,.23,1.4c0,.51-.09,1-.27,1.46-.18,.46-.42,.86-.74,1.2s-.68,.61-1.11,.81c-.43,.2-.88,.3-1.37,.3Zm-.22-.84c.4,0,.77-.08,1.1-.25,.33-.16,.62-.38,.86-.66,.24-.28,.43-.59,.56-.94,.14-.35,.2-.71,.2-1.09s-.06-.75-.19-1.11c-.13-.36-.3-.67-.53-.95-.23-.28-.5-.5-.82-.66-.32-.16-.67-.25-1.05-.25-.29,0-.56,.05-.81,.15-.25,.1-.49,.23-.7,.4-.21,.17-.41,.36-.58,.58-.17,.22-.32,.45-.43,.69v2.27c.04,.25,.14,.49,.3,.71,.16,.22,.36,.41,.6,.57,.23,.16,.48,.29,.74,.38,.26,.09,.51,.14,.76,.14Z"/><path class="b" d="M64.79,57.75c-.5,0-.97-.1-1.4-.32-.43-.21-.8-.49-1.12-.83-.31-.35-.56-.75-.73-1.2-.17-.45-.26-.93-.26-1.42s.08-1,.25-1.47,.4-.87,.69-1.21c.29-.35,.65-.62,1.05-.82,.41-.2,.85-.3,1.34-.3,.62,0,1.16,.16,1.64,.48s.86,.71,1.14,1.17v-4.46h.95v9.01c0,.26,.11,.39,.34,.39v.84c-.16,.03-.29,.04-.38,.04-.23,0-.43-.07-.58-.2-.15-.14-.22-.3-.22-.48v-.77c-.3,.48-.69,.86-1.19,1.14-.49,.28-1,.42-1.54,.42Zm.2-.84c.24,0,.5-.05,.76-.14,.27-.09,.51-.22,.74-.39,.23-.16,.43-.36,.6-.58,.17-.22,.27-.46,.31-.71v-2.26c-.09-.25-.23-.49-.41-.71-.18-.22-.39-.41-.62-.58-.23-.17-.47-.3-.73-.39-.26-.09-.51-.14-.76-.14-.39,0-.75,.08-1.07,.25-.32,.17-.6,.39-.82,.67-.22,.28-.4,.59-.53,.95s-.19,.72-.19,1.09c0,.39,.07,.77,.21,1.12s.33,.67,.58,.93,.53,.48,.86,.64,.69,.24,1.07,.24Z"/><path class="b" d="M79.31,57.75c-.53,0-1.02-.1-1.47-.3-.45-.2-.84-.48-1.16-.83-.33-.35-.58-.75-.76-1.21-.18-.46-.27-.95-.27-1.47s.09-1,.27-1.45c.18-.45,.44-.85,.76-1.19,.33-.34,.71-.61,1.16-.81,.44-.2,.93-.3,1.47-.3s1.02,.1,1.47,.3,.83,.47,1.14,.82c.32,.35,.57,.74,.74,1.19,.18,.45,.27,.93,.27,1.43,0,.07,0,.15,0,.22s-.01,.13-.02,.15h-6.24c.03,.39,.12,.76,.27,1.09s.35,.62,.59,.86c.24,.24,.51,.43,.83,.57,.31,.14,.65,.2,1,.2,.24,0,.48-.03,.72-.1s.45-.15,.65-.27c.2-.11,.37-.25,.53-.41,.15-.16,.27-.34,.36-.54l.83,.22c-.11,.27-.27,.52-.48,.74-.21,.22-.44,.41-.72,.58-.27,.16-.57,.29-.9,.38-.33,.09-.66,.13-1.01,.13Zm2.69-4.18c-.03-.39-.12-.75-.27-1.07s-.35-.6-.59-.83c-.24-.23-.52-.42-.83-.55-.32-.13-.65-.2-1.01-.2s-.69,.07-1.01,.2c-.32,.13-.6,.31-.83,.55-.24,.23-.43,.51-.58,.84-.15,.33-.23,.68-.26,1.07h5.39Z"/><path class="b" d="M91.95,57.61l-2.97-7.31h1l2.51,6.43,2.53-6.43h.93l-2.97,7.31h-1.01Z"/><path class="b" d="M106.01,57.75c-.53,0-1.02-.1-1.47-.3-.45-.2-.84-.48-1.16-.83-.33-.35-.58-.75-.76-1.21-.18-.46-.27-.95-.27-1.47s.09-1,.27-1.45c.18-.45,.44-.85,.76-1.19,.33-.34,.71-.61,1.16-.81,.44-.2,.93-.3,1.47-.3s1.02,.1,1.47,.3,.83,.47,1.14,.82c.32,.35,.57,.74,.74,1.19,.18,.45,.27,.93,.27,1.43,0,.07,0,.15,0,.22s-.01,.13-.02,.15h-6.24c.03,.39,.12,.76,.27,1.09s.35,.62,.59,.86c.24,.24,.51,.43,.83,.57,.31,.14,.65,.2,1,.2,.24,0,.48-.03,.72-.1s.45-.15,.65-.27c.2-.11,.37-.25,.53-.41,.15-.16,.27-.34,.36-.54l.83,.22c-.11,.27-.27,.52-.48,.74-.21,.22-.44,.41-.72,.58-.27,.16-.57,.29-.9,.38-.33,.09-.66,.13-1.01,.13Zm2.69-4.18c-.03-.39-.12-.75-.27-1.07s-.35-.6-.59-.83c-.24-.23-.52-.42-.83-.55-.32-.13-.65-.2-1.01-.2s-.69,.07-1.01,.2c-.32,.13-.6,.31-.83,.55-.24,.23-.43,.51-.58,.84-.15,.33-.23,.68-.26,1.07h5.39Z"/><path class="b" d="M116.7,47.36h.95v8.59c0,.27,.07,.48,.22,.64,.15,.15,.36,.23,.63,.23,.1,0,.22-.01,.36-.04,.14-.03,.27-.07,.39-.11l.17,.77c-.18,.08-.4,.14-.65,.18-.26,.05-.48,.07-.67,.07-.44,0-.79-.12-1.04-.37-.25-.25-.38-.6-.38-1.05v-8.91Z"/><path class="b" d="M129.12,57.75c-.53,0-1.02-.1-1.47-.3-.44-.2-.83-.47-1.15-.82s-.57-.75-.75-1.21c-.18-.46-.27-.94-.27-1.44s.09-1,.27-1.46c.18-.46,.44-.86,.76-1.21,.32-.35,.71-.62,1.15-.83,.44-.21,.93-.31,1.45-.31s1.01,.1,1.45,.31c.44,.21,.83,.48,1.15,.83,.32,.35,.58,.75,.76,1.21,.18,.46,.27,.95,.27,1.46s-.09,.99-.27,1.44c-.18,.46-.44,.86-.76,1.21s-.71,.62-1.15,.82c-.44,.2-.93,.3-1.45,.3Zm-2.65-3.76c0,.41,.07,.79,.2,1.14,.14,.35,.32,.66,.56,.93,.24,.27,.52,.47,.84,.62,.32,.15,.67,.22,1.03,.22s.71-.08,1.03-.23,.61-.36,.85-.63,.44-.58,.58-.93c.14-.35,.21-.74,.21-1.15s-.07-.78-.21-1.14c-.14-.36-.33-.67-.58-.94s-.52-.48-.84-.63-.66-.23-1.02-.23-.71,.08-1.03,.23-.6,.37-.84,.64c-.24,.27-.43,.59-.57,.95-.14,.36-.21,.75-.21,1.16Z"/><path class="b" d="M143.67,57.75c-.62,0-1.16-.16-1.64-.47s-.86-.71-1.15-1.19v4.5h-.95v-10.3h.86v1.42c.3-.46,.69-.83,1.16-1.12,.48-.29,1-.43,1.56-.43,.5,0,.97,.1,1.4,.32,.43,.21,.79,.49,1.1,.84,.31,.35,.55,.76,.72,1.21,.17,.46,.26,.93,.26,1.42,0,.51-.08,1-.24,1.46-.16,.46-.39,.86-.68,1.21-.29,.35-.65,.62-1.05,.82-.41,.2-.85,.3-1.34,.3Zm-.27-.84c.39,0,.75-.08,1.07-.25s.59-.39,.82-.67c.23-.28,.4-.59,.53-.94s.18-.71,.18-1.09c0-.39-.07-.77-.21-1.12-.14-.35-.33-.67-.58-.94-.24-.27-.53-.49-.86-.65-.33-.16-.69-.24-1.07-.24-.24,0-.5,.05-.76,.15-.26,.1-.51,.23-.74,.39-.23,.16-.43,.36-.6,.58-.16,.22-.26,.45-.3,.69v2.24c.11,.26,.25,.51,.43,.73,.17,.22,.37,.42,.59,.58,.22,.16,.46,.29,.72,.39,.26,.09,.52,.14,.79,.14Z"/><path class="b" d="M157.36,57.75c-.53,0-1.02-.1-1.47-.3-.45-.2-.84-.48-1.16-.83-.33-.35-.58-.75-.76-1.21-.18-.46-.27-.95-.27-1.47s.09-1,.27-1.45c.18-.45,.44-.85,.76-1.19,.33-.34,.71-.61,1.16-.81,.44-.2,.93-.3,1.47-.3s1.02,.1,1.47,.3,.83,.47,1.14,.82c.32,.35,.57,.74,.74,1.19,.18,.45,.27,.93,.27,1.43,0,.07,0,.15,0,.22s-.01,.13-.02,.15h-6.24c.03,.39,.12,.76,.27,1.09s.35,.62,.59,.86c.24,.24,.51,.43,.83,.57,.31,.14,.65,.2,1,.2,.24,0,.48-.03,.72-.1s.45-.15,.65-.27c.2-.11,.37-.25,.53-.41,.15-.16,.27-.34,.36-.54l.83,.22c-.11,.27-.27,.52-.48,.74-.21,.22-.44,.41-.72,.58-.27,.16-.57,.29-.9,.38-.33,.09-.66,.13-1.01,.13Zm2.69-4.18c-.03-.39-.12-.75-.27-1.07s-.35-.6-.59-.83c-.24-.23-.52-.42-.83-.55-.32-.13-.65-.2-1.01-.2s-.69,.07-1.01,.2c-.32,.13-.6,.31-.83,.55-.24,.23-.43,.51-.58,.84-.15,.33-.23,.68-.26,1.07h5.39Z"/><path class="b" d="M171.66,51.14c-.65,.02-1.21,.2-1.68,.53-.48,.34-.81,.8-1.01,1.39v4.55h-.95v-7.31h.9v1.75c.25-.51,.58-.94,1-1.28,.41-.34,.86-.51,1.33-.51h.24c.07,0,.14,0,.18,.01v.87Z"/></g></svg>